<?xml version="1.0" encoding="UTF-8"?>
<svg version="1.1" xmlns="http://www.w3.org/2000/svg" width="505" height="494">
<path d="M0 0 C43.28390621 -0.57125968 81.03716309 1.69081195 113.625 33.375 C117.57401513 37.41568869 121.1508223 41.70706944 124.6640625 46.12890625 C126.52433415 48.41536054 128.42413939 50.6241921 130.37890625 52.828125 C133.88292819 56.81120511 137.12052949 60.95254021 140.3125 65.1875 C141.45035598 66.68632308 142.58837842 68.18501981 143.7265625 69.68359375 C144.55849121 70.7816333 144.55849121 70.7816333 145.40722656 71.90185547 C147.65401546 74.86152802 149.91939765 77.80665066 152.1875 80.75 C152.97382813 81.77351563 153.76015625 82.79703125 154.5703125 83.8515625 C156.30755143 86.10271133 158.05182794 88.34704138 159.8046875 90.5859375 C160.26593018 91.17793945 160.72717285 91.76994141 161.20239258 92.37988281 C162.08684834 93.51470417 162.97453922 94.6470141 163.8659668 95.77636719 C165.74526165 98.19342243 167.02232298 100.06696895 168 103 C171.8520095 99.28780935 175.24478932 95.38018097 178.5625 91.1875 C179.34294678 90.20680542 179.34294678 90.20680542 180.13916016 89.20629883 C184.30611448 83.94149061 188.3455246 78.58714836 192.35327148 73.20068359 C197.36156055 66.48020753 202.51395721 59.87542402 207.671875 53.26953125 C210.59288581 49.5281337 213.48837278 45.76794512 216.375 42 C236.15091353 16.30102235 254.79296079 6.44733016 286.6171875 1.4296875 C290.26236065 0.96667474 293.89573813 0.64832798 297.5625 0.4375 C298.29903809 0.3950415 299.03557617 0.35258301 299.79443359 0.30883789 C312.5089406 -0.32043018 325.27421399 -0.08181762 338 0 C336.41763638 4.22360877 334.52981013 7.01441103 331.5625 10.4375 C330.6545212 11.49982689 329.74833796 12.56369052 328.84375 13.62890625 C328.37453125 14.18078613 327.9053125 14.73266602 327.421875 15.30126953 C325.07160363 18.10916585 322.81579183 20.98909195 320.5625 23.875 C320.10415771 24.46095947 319.64581543 25.04691895 319.17358398 25.65063477 C317.78107002 27.43273123 316.39037471 29.21623421 315 31 C308.69352205 39.08253208 302.31693435 47.09867299 295.83422852 55.04077148 C292.36129353 59.30270635 288.94187795 63.60113007 285.5625 67.9375 C280.88160799 73.94005563 276.05454024 79.8134431 271.19824219 85.67456055 C267.50022523 90.14798451 263.87503439 94.66812774 260.3125 99.25 C256.37476516 104.31280194 252.29914838 109.22992493 248.12866211 114.10205078 C244.29503954 118.60135135 240.63476251 123.22212075 237.00415039 127.88598633 C233.34021555 132.58881908 229.58257874 137.20329111 225.77734375 141.79296875 C223.88506864 144.07506357 223.88506864 144.07506357 222 147 C222.57105469 146.80664062 223.14210938 146.61328125 223.73046875 146.4140625 C235.03956037 142.78220796 246.21020824 141.69775502 258.04223633 141.77294922 C259.88850868 141.77251114 259.88850868 141.77251114 261.77207947 141.77206421 C265.10188287 141.7732073 268.43142889 141.78313985 271.76118684 141.79721212 C275.25783143 141.80983438 278.75448055 141.81089894 282.25114441 141.81326294 C288.85228005 141.8194443 295.45334834 141.83580914 302.05445451 141.85596192 C309.5781825 141.87842591 317.10191395 141.88934058 324.62566721 141.89935279 C340.08381696 141.9201789 355.54189975 141.9552888 371 142 C371.00803817 144.08829121 371.01378399 146.17659134 371.01855469 148.26489258 C371.0219989 149.42781326 371.02544312 150.59073395 371.0289917 151.78889465 C370.92711085 163.07316364 368.40065387 175.1603301 361 184 C348.03978551 195.05158433 324.85076375 192.13024117 308.75369835 192.19923019 C306.18239338 192.21131017 303.61123572 192.23081776 301.03999329 192.25234985 C293.74375353 192.31306916 286.44754453 192.36805019 279.15112305 192.40136719 C274.65096993 192.42244352 270.1511143 192.45781815 265.65113258 192.50212479 C263.95573248 192.51614682 262.26028012 192.52497549 260.56482506 192.52817917 C242.63672895 192.56570347 225.76906689 195.54364036 212.453125 208.71484375 C211 210 211 210 209 210 C209 210.66 209 211.32 209 212 C208.34 212 207.68 212 207 212 C206.73832031 212.55816406 206.47664062 213.11632812 206.20703125 213.69140625 C204.87025192 216.24815895 203.3067782 218.5498725 201.6875 220.9375 C192.08868652 235.86676106 189.26743847 253.74730715 192.68359375 271.171875 C197.224542 288.12977302 207.76341171 302.17508163 223 311 C236.11954441 318.25550562 249.98686052 319.45038677 264.6796875 319.51171875 C266.22910944 319.52861448 267.77851809 319.54677105 269.32791138 319.56611633 C273.35544676 319.61309248 277.38292828 319.64323729 281.41064453 319.66955566 C286.270231 319.704941 291.12961051 319.76180036 295.98902893 319.81494904 C303.32599074 319.89284666 310.66269334 319.94391621 318 320 C318 309.77 318 299.54 318 289 C313.01132812 289.05220703 313.01132812 289.05220703 307.921875 289.10546875 C304.66504777 289.12893191 301.40823033 289.14710996 298.15136719 289.16479492 C295.90522986 289.17978852 293.65912134 289.2001902 291.41308594 289.22631836 C288.16594285 289.26311931 284.91919015 289.27982116 281.671875 289.29296875 C280.18986603 289.31619453 280.18986603 289.31619453 278.67791748 289.33988953 C271.25191006 289.34164216 261.9670886 289.14802457 255.92718506 284.35514832 C245.36520894 273.00749258 249 253.48316188 249 240 C288.27 240 327.54 240 368 240 C368 282.57 368 325.14 368 369 C337.0625 369.0928125 337.0625 369.0928125 305.5 369.1875 C295.77305664 369.22846802 295.77305664 369.22846802 285.84960938 369.27026367 C277.86035156 369.28381348 277.86035156 369.28381348 274.10656738 369.28633118 C271.5145884 369.2909034 268.9230663 369.30022648 266.33117676 369.31672668 C249.14942273 369.42130286 232.74719955 369.38932917 216.4375 363.3125 C215.74043945 363.05758789 215.04337891 362.80267578 214.32519531 362.54003906 C186.03734163 351.82164452 163.51224302 330.34672384 150.75 303 C140.88354188 280.91792706 138.69282439 257.77297636 142.60546875 234.015625 C147.37808479 197.53582712 117.3436109 151.14389051 97 123 C96.4519873 122.24090332 95.90397461 121.48180664 95.33935547 120.69970703 C85.65448434 107.33334149 75.59864241 94.3106968 65.10546875 81.5703125 C63.08761344 79.10695667 61.10292054 76.62046973 59.125 74.125 C55.9872925 70.18723959 52.76284246 66.33378414 49.5 62.5 C45.56712403 57.87893794 41.72255686 53.20224708 37.94921875 48.44921875 C33.06965801 42.31798712 28.09342011 36.26906976 23.00756836 30.30810547 C18.12973438 24.5904537 13.39999366 18.78185745 8.79150391 12.84448242 C8.36788574 12.29896729 7.94426758 11.75345215 7.5078125 11.19140625 C7.09821289 10.66305176 6.68861328 10.13469727 6.26660156 9.59033203 C4.94339086 7.92892214 3.56600863 6.32377513 2.1796875 4.71484375 C0 2 0 2 0 0 Z " fill="#A3BBA6" transform="translate(36,89)"/>
<path d="M0 0 C39.27 0 78.54 0 119 0 C119 42.57 119 85.14 119 129 C90.95 129 62.9 129 34 129 C36.26353757 126.73646243 38.6359583 125.68106072 41.51000977 124.3371582 C55.07494057 117.95392975 61.56022664 110.33591618 67.13671875 96.09765625 C68.95422686 89.57600951 69.14414656 83.06484258 69.09765625 76.34375 C69.0962413 75.55601196 69.09482635 74.76827393 69.09336853 73.95666504 C69.08782612 71.47106936 69.07528485 68.98556789 69.0625 66.5 C69.05747754 64.80208465 69.05291595 63.10416786 69.04882812 61.40625 C69.03787564 57.27079771 69.02065166 53.13541476 69 49 C68.42529968 49.00666183 67.85059937 49.01332367 67.25848389 49.02018738 C61.22283581 49.08707395 55.18729473 49.13201947 49.15136719 49.16479492 C46.90522986 49.17978852 44.65912134 49.2001902 42.41308594 49.22631836 C39.16594285 49.26311931 35.91919015 49.27982116 32.671875 49.29296875 C31.18986603 49.31619453 31.18986603 49.31619453 29.67791748 49.33988953 C22.25191006 49.34164216 12.9670886 49.14802457 6.92718506 44.35514832 C-3.63479106 33.00749258 0 13.48316188 0 0 Z " fill="#9BB4A1" transform="translate(285,329)"/>
<path d="M0 0 C-0.9178125 0.42410156 -1.835625 0.84820312 -2.78125 1.28515625 C-9.44711072 4.44462893 -15.23766035 7.46333796 -20.546875 12.71484375 C-22 14 -22 14 -24 14 C-24 14.66 -24 15.32 -24 16 C-24.66 16 -25.32 16 -26 16 C-26.26167969 16.55816406 -26.52335937 17.11632812 -26.79296875 17.69140625 C-28.12974808 20.24815895 -29.6932218 22.5498725 -31.3125 24.9375 C-40.91131348 39.86676106 -43.73256153 57.74730715 -40.31640625 75.171875 C-35.775458 92.12977302 -25.23658829 106.17508163 -10 115 C3.11954441 122.25550562 16.98686052 123.45038677 31.6796875 123.51171875 C33.22910944 123.52861448 34.77851809 123.54677105 36.32791138 123.56611633 C40.35544676 123.61309248 44.38292828 123.64323729 48.41064453 123.66955566 C52.54079839 123.6996296 56.67076725 123.7460657 60.80078125 123.79101562 C68.86709544 123.87645053 76.93342753 123.9440575 85 124 C85.33 123.34 85.66 122.68 86 122 C85.76406176 137.7006172 81.55132821 150.87327706 70.0625 162.125 C58.00764004 171.92814004 46.90666161 174.07373836 31.80297852 173.69287109 C29.06883497 173.62515689 26.33842373 173.6108616 23.60351562 173.60546875 C9.86370914 173.49064538 -3.58361085 172.14830289 -16.5625 167.3125 C-17.25956055 167.05758789 -17.95662109 166.80267578 -18.67480469 166.54003906 C-40.44295449 158.29198955 -62.23500515 142.47242041 -74 122 C-74.875 118.625 -74.875 118.625 -75 115 C-75.35320258 113.20814303 -75.70753358 111.41650839 -76.0625 109.625 C-77.10159495 102.89822744 -77.2213936 96.23779352 -77.25 89.4375 C-77.259104 88.3973877 -77.26820801 87.35727539 -77.27758789 86.28564453 C-77.23837194 76.11670922 -76.00085247 66.36808 -72.25 56.875 C-71.98759521 56.19687256 -71.72519043 55.51874512 -71.45483398 54.82006836 C-67.83867515 45.75647002 -62.70026791 37.14925493 -56 30 C-55.34 30 -54.68 30 -54 30 C-53.79632813 29.44699219 -53.59265625 28.89398438 -53.3828125 28.32421875 C-51.46705122 25.10422451 -48.79687286 23.07268866 -45.875 20.8125 C-45.25391357 20.33200195 -44.63282715 19.85150391 -43.99291992 19.35644531 C-33.99949818 11.81433428 -23.39802727 6.26853432 -11.6875 1.875 C-10.86870361 1.56723633 -10.04990723 1.25947266 -9.20629883 0.94238281 C-3.38532319 -1.12844106 -3.38532319 -1.12844106 0 0 Z " fill="#B8CCB2" transform="translate(269,285)"/>
<path d="M0 0 C47.56336339 -0.86105518 47.56336339 -0.86105518 64 4 C64.83450684 4.24669434 65.66901367 4.49338867 66.52880859 4.74755859 C77.06657382 8.00054695 86.23499344 12.18841024 95 19 C96.41345703 20.08474609 96.41345703 20.08474609 97.85546875 21.19140625 C106.83705791 28.31473559 114.53836999 36.16036223 121.6640625 45.12890625 C123.52433415 47.41536054 125.42413939 49.6241921 127.37890625 51.828125 C130.88292819 55.81120511 134.12052949 59.95254021 137.3125 64.1875 C138.45035598 65.68632308 139.58837842 67.18501981 140.7265625 68.68359375 C141.55849121 69.7816333 141.55849121 69.7816333 142.40722656 70.90185547 C144.65401234 73.86152392 146.91895978 76.80699203 149.1875 79.75 C151.72921401 83.05006147 154.26995052 86.35082772 156.8046875 89.65625 C157.26593018 90.25727539 157.72717285 90.85830078 158.20239258 91.47753906 C159.09081426 92.63530992 159.97869629 93.79349513 160.8659668 94.95214844 C162.82458241 97.56871488 162.82458241 97.56871488 165 100 C165.44747085 103.28145293 165.19286066 104.69999454 163.3828125 107.515625 C162.63773438 108.41796875 161.89265625 109.3203125 161.125 110.25 C155.26710968 117.70041694 150.6704617 125.77062699 146 134 C142.73132266 130.95833815 141.03570735 127.38435882 139.0625 123.4375 C129.01307124 103.95587786 115.79372965 85.69957752 100.68359375 69.8359375 C98.45883008 67.4848772 96.33778987 65.09626148 94.25 62.625 C91.45837057 59.40388912 88.44567263 56.63462869 85.19140625 53.88671875 C83.66568432 52.57312928 82.17541402 51.21770048 80.71484375 49.83203125 C68.88190371 38.62091495 55.51089355 29.03735609 41.37890625 20.9375 C39.30186191 19.74650116 37.24215089 18.52381991 35.21484375 17.25 C27.45885852 12.4290135 19.23195254 8.92473918 10.83203125 5.37524414 C9.86523438 4.96653076 8.8984375 4.55781738 7.90234375 4.13671875 C7.03085693 3.77280029 6.15937012 3.40888184 5.26147461 3.03393555 C3 2 3 2 0 0 Z " fill="#9BB4A1" transform="translate(39,90)"/>
<path d="M0 0 C0.33 0 0.66 0 1 0 C0.59501159 9.51722766 -1.77074621 18.55950241 -8 26 C-10.51764114 27.97121598 -13.03625515 29.7767706 -16 31 C-16.99 30.67 -17.98 30.34 -19 30 C-17.948125 29.484375 -16.89625 28.96875 -15.8125 28.4375 C-8.13360962 23.94782619 -6.17610081 17.26075269 -3.89453125 9.0859375 C-1.77540107 1.77540107 -1.77540107 1.77540107 0 0 Z " fill="#B4CCC0" transform="translate(405,247)"/>
<path d="M0 0 C0.66 0 1.32 0 2 0 C2.08076963 2.45898655 2.14037143 4.91533742 2.1875 7.375 C2.21263672 8.07367188 2.23777344 8.77234375 2.26367188 9.4921875 C2.29296875 11.5234375 2.29296875 11.5234375 2 15 C1.01 15.66 0.02 16.32 -1 17 C-0.67 11.39 -0.34 5.78 0 0 Z " fill="#A6C3B5" transform="translate(404,232)"/>
<path d="M0 0 C-1.59766103 0.86627399 -3.20339944 1.71766465 -4.8125 2.5625 C-5.70582031 3.03816406 -6.59914063 3.51382812 -7.51953125 4.00390625 C-10 5 -10 5 -13 4 C-12 2 -12 2 -10.0390625 1.11328125 C-9.24242187 0.84902344 -8.44578125 0.58476562 -7.625 0.3125 C-6.83351563 0.04050781 -6.04203125 -0.23148437 -5.2265625 -0.51171875 C-3 -1 -3 -1 0 0 Z " fill="#C0D2BB" transform="translate(269,285)"/>
</svg>
